# xmcd
# Track frame offsets: 
#        150
#        15456
#        42369
#        68681
#        80472
#        93157
#        111219
#        125030
#        141625
#        162157
# Disc length: 2432 seconds
# Revision: 0
# Processed by: cddbd v1.4b41PL3 Copyright (c) Steve Scherf et al.
# Submitted via: ExactAudioCopy v0.90a9
#
DISCID=82097e0a
DTITLE=The Good Sons - Happiness
DYEAR=1900
DGENRE=
TTITLE0=I Can't Cry Hard Enough
TTITLE1=Both Sides Of The Faith
TTITLE2=Rush Of Happiness
TTITLE3=Tim Hardin '65
TTITLE4=Heartless Thing
TTITLE5=Reason To Live
TTITLE6=The Family Way
TTITLE7=Happy Infidels
TTITLE8=I Can't Reach Him
TTITLE9=Shake This Town
EXTD=
EXTT0=
EXTT1=
EXTT2=
EXTT3=
EXTT4=
EXTT5=
EXTT6=
EXTT7=
EXTT8=
EXTT9=
PLAYORDER=
